<svg width="278" height="49" viewBox="0 0 278 49" fill="none" xmlns="http://www.w3.org/2000/svg">
<g clip-path="url(#clip0_1_4)">
<path d="M17.0563 0.431854H29.9964V9.82016H16.2161C13.7289 9.82016 11.8429 10.5686 10.5581 12.0654C8.8085 13.5646 7.4696 16.458 6.54139 20.7455C6.35373 21.9753 6.2506 23.2356 6.23391 24.5028C6.23391 28.1434 7.06757 31.5668 8.73488 34.773C9.82621 36.4941 10.8511 37.6332 11.8097 38.1905C12.8606 38.9672 14.3034 39.3556 16.1382 39.3556H29.9964V48.7404H16.7878C13.4113 48.7404 10.9104 48.0698 9.28487 46.7288C5.65143 44.1318 3.04869 39.8822 1.47665 33.9798C0.709308 31.0011 0.319619 27.7988 0.331183 24.5666C0.331183 17.3752 2.07356 11.2367 5.55832 6.15125C7.83915 3.32047 9.902 1.64892 11.7469 1.1366C12.691 0.66913 14.4608 0.434215 17.0563 0.431854ZM14.5553 19.9416H29.9964V29.2271H14.5553V19.9416Z" fill="white"/>
<path d="M49.3265 22.803V29.7938H34.3424V22.803H49.3265Z" fill="white"/>
<path d="M50.5845 0.467262H67.0238C72.9799 0.467262 77.1136 4.72405 79.4247 13.2376C79.9919 15.6779 80.2768 18.2695 80.2649 20.88C80.2649 26.5464 78.9122 31.5043 76.207 35.754C74.5397 38.1669 72.4963 39.7982 70.077 40.6481C69.1403 40.8641 68.1949 40.9648 67.249 40.9493L56.5089 41.1512V48.7262H50.5433V31.6069H66.7834C68.9026 31.6069 70.4538 30.9589 71.4368 29.6628C72.6941 28.3453 73.5963 26.2204 74.1435 23.2881C74.2384 22.6163 74.2927 21.9305 74.3059 21.2412V20.232C74.3059 17.7057 73.6433 15.248 72.3181 12.8587C70.9381 10.8731 69.4078 9.87917 67.7276 9.87682H50.5845V0.467262Z" fill="white"/>
<path d="M83.3353 0.467262H89.2791V23.2952C89.2791 29.6863 90.7754 34.3339 93.7679 37.2378C95.0801 38.6544 96.8225 39.3627 98.995 39.3627H113.055V48.7475H99.1961C95.4432 48.7475 92.4434 47.4619 90.1973 44.8908C89.5722 44.3714 88.6324 43.1166 87.378 41.1264C85.7525 38.1327 84.6525 35.1165 84.078 32.078C83.5872 29.7761 83.341 26.479 83.3396 22.1869L83.3353 0.467262Z" fill="white"/>
<path d="M132.2 0.399994H145.843V48.7368H139.924V9.82017L134.637 9.85204H133.366C130.414 9.85204 128.773 10.0539 128.446 10.4576C126.658 11.2646 125.084 13.0212 123.972 15.451C122.661 18.5202 122.004 21.5706 122.004 24.6021C122.004 28.3559 122.892 31.8088 124.67 34.9607C125.859 36.8165 126.885 37.9331 127.744 38.3109C128.61 39.0192 130.093 39.3733 132.192 39.3733H136.307V48.7262H131.378C127.716 48.7262 124.621 47.1503 122.093 43.9984C120.263 41.6374 119.04 39.4926 118.425 37.5636C116.893 33.5877 116.128 29.5212 116.129 25.3634V23.947C116.129 18.139 117.461 12.8091 120.126 7.95738C121.737 5.40284 123.056 3.78913 124.08 3.11627C125.053 2.29581 126.077 1.65443 127.136 1.2039C128.296 0.667962 129.985 0.399994 132.2 0.399994Z" fill="white"/>
<path d="M160.872 48.7368V40.8252C158.492 39.7841 156.266 37.9584 154.332 35.46C152.708 33.0707 151.648 31.0816 151.156 29.4928C150.473 27.6969 149.942 25.7573 149.578 23.7274C149.144 21.4939 148.928 18.4541 148.928 14.6082V0.467262H154.872V15.0473C154.872 19.297 155.377 22.5716 156.388 24.8712C156.591 25.6078 157.247 26.7811 158.353 28.3914C159.884 30.4499 161.804 31.5753 163.785 31.5753C165.767 31.5753 167.687 30.4499 169.218 28.3914C170.324 26.7789 170.981 25.6054 171.186 24.8712C172.196 22.5692 172.701 19.2947 172.701 15.0473V0.467262H178.645V14.6117C178.645 18.4577 178.429 21.4974 177.995 23.7309C177.645 25.7686 177.113 27.7111 176.417 29.4964C175.926 31.0828 174.874 33.072 173.262 35.4635C171.319 37.9558 169.088 39.7795 166.703 40.8252V48.7368H160.872Z" fill="white"/>
<path d="M198.439 0.431854H211.372V9.82015H197.594C195.109 9.82015 193.223 10.5686 191.938 12.0654C190.189 13.5646 188.85 16.458 187.922 20.7455C187.734 21.9753 187.631 23.2356 187.614 24.5028C187.614 28.1434 188.447 31.5668 190.113 34.773C191.206 36.4941 192.231 37.6332 193.187 38.1905C194.24 38.972 195.684 39.3638 197.518 39.3663H211.376V48.751H198.168C194.795 48.751 192.294 48.0804 190.667 46.7394C187.033 44.1424 184.43 39.8926 182.859 33.9904C182.09 31.0103 181.699 27.805 181.711 24.5702C181.711 17.3788 183.453 11.2403 186.937 6.15478C189.222 3.32165 191.286 1.64892 193.132 1.1366C194.074 0.66913 195.843 0.434215 198.439 0.431854ZM195.94 19.9416H211.372V29.2271H195.94V19.9416Z" fill="white"/>
<path d="M214.507 0.431854H233.487C236.841 0.431854 239.465 2.0739 241.358 5.35797C242.091 6.40746 242.69 7.68311 243.121 9.11187C243.823 11.2986 244.202 13.7247 244.227 16.1947V17.5688C244.227 21.1102 243.289 24.5631 241.412 27.9275C240.21 29.8162 239.117 31.0227 238.133 31.5468C240.62 35.8862 241.862 41.6186 241.862 48.7439H235.899V48.0073C235.899 42.7329 234.594 38.5423 231.985 35.4352C230.494 33.7141 228.546 32.8535 226.138 32.8535H214.507V23.529H233.855C235.973 23.529 237.407 21.8197 238.16 18.401C238.242 17.6927 238.296 17.1262 238.324 16.6586C238.324 14.7581 237.839 13.037 236.869 11.4952C236.12 10.4731 235.179 9.90519 234.204 9.88745C234.204 9.79891 233.917 9.75286 233.338 9.75286H214.499L214.507 0.431854Z" fill="white"/>
<path d="M256.688 0.467269H276.588V10.3832H256.502C254.933 10.3832 253.97 11.6452 253.613 14.169V14.8773C253.613 16.3741 254.126 17.6255 255.151 18.6312C255.464 18.8323 255.797 18.9344 256.134 18.9322H266.235C268.834 18.9322 270.596 19.3679 271.523 20.239C273.82 21.9176 275.408 24.4769 276.287 27.9169C276.763 29.8927 277.013 31.9944 277.026 34.1178C277.026 38.9436 275.645 43.0104 272.885 46.3181C272.009 47.2068 271.055 47.8743 270.058 48.2976C269.265 48.5881 267.946 48.7333 266.102 48.7333H247.328L247.306 38.8173H267.474C269.169 38.8173 270.252 37.4539 270.722 34.7269L270.763 33.824C270.763 31.8997 270.186 30.4241 269.031 29.3971C268.539 29.0122 267.997 28.8287 267.453 28.8623H256.119C253.154 28.8623 250.681 26.7375 248.701 22.4878C247.874 20.3491 247.424 17.8784 247.402 15.3483V14.038C247.402 9.08 248.877 5.15847 251.83 2.27339C253.046 1.06695 254.666 0.464908 256.688 0.467269Z" fill="white"/>
</g>
<defs>
<clipPath id="clip0_1_4">
<rect width="276.688" height="48.3368" fill="white" transform="translate(0.331299 0.399994)"/>
</clipPath>
</defs>
</svg>
